<mxfile host="Electron" modified="2023-12-07T16:29:46.777Z" agent="Mozilla/5.0 (Windows NT 10.0; Win64; x64) AppleWebKit/537.36 (KHTML, like Gecko) draw.io/22.1.2 Chrome/114.0.5735.289 Electron/25.9.4 Safari/537.36" etag="CmP00PlIxDWWf3lrHFmt" version="22.1.2" type="device">
  <diagram name="Страница — 1" id="-JpXHqWcb4p7--5672x1">
    <mxGraphModel dx="1098" dy="828" grid="1" gridSize="10" guides="1" tooltips="1" connect="1" arrows="1" fold="1" page="1" pageScale="1" pageWidth="827" pageHeight="1169" math="0" shadow="0">
      <root>
        <mxCell id="0" />
        <mxCell id="1" parent="0" />
        <mxCell id="PB1MrMbRce0Rwy10HPza-2" value="" style="edgeStyle=orthogonalEdgeStyle;rounded=0;orthogonalLoop=1;jettySize=auto;html=1;" edge="1" parent="1" source="AJVkBe2PWT5__jpnFMYA-1" target="PB1MrMbRce0Rwy10HPza-1">
          <mxGeometry relative="1" as="geometry" />
        </mxCell>
        <mxCell id="AJVkBe2PWT5__jpnFMYA-1" value="Начало" style="ellipse;whiteSpace=wrap;html=1;" parent="1" vertex="1">
          <mxGeometry x="120" y="10" width="120" height="80" as="geometry" />
        </mxCell>
        <mxCell id="PB1MrMbRce0Rwy10HPza-4" value="" style="edgeStyle=orthogonalEdgeStyle;rounded=0;orthogonalLoop=1;jettySize=auto;html=1;" edge="1" parent="1" source="PB1MrMbRce0Rwy10HPza-1" target="PB1MrMbRce0Rwy10HPza-3">
          <mxGeometry relative="1" as="geometry" />
        </mxCell>
        <mxCell id="PB1MrMbRce0Rwy10HPza-1" value="Запросить массив" style="rounded=0;whiteSpace=wrap;html=1;" vertex="1" parent="1">
          <mxGeometry x="120" y="120" width="120" height="60" as="geometry" />
        </mxCell>
        <mxCell id="PB1MrMbRce0Rwy10HPza-6" value="" style="edgeStyle=orthogonalEdgeStyle;rounded=0;orthogonalLoop=1;jettySize=auto;html=1;" edge="1" parent="1" source="PB1MrMbRce0Rwy10HPza-3" target="PB1MrMbRce0Rwy10HPza-5">
          <mxGeometry relative="1" as="geometry" />
        </mxCell>
        <mxCell id="PB1MrMbRce0Rwy10HPza-3" value="Посчитать колличество элементов меньше 3х символов" style="rounded=0;whiteSpace=wrap;html=1;" vertex="1" parent="1">
          <mxGeometry x="120" y="200" width="120" height="60" as="geometry" />
        </mxCell>
        <mxCell id="PB1MrMbRce0Rwy10HPza-18" value="" style="edgeStyle=orthogonalEdgeStyle;rounded=0;orthogonalLoop=1;jettySize=auto;html=1;" edge="1" parent="1" source="PB1MrMbRce0Rwy10HPza-5" target="PB1MrMbRce0Rwy10HPza-7">
          <mxGeometry relative="1" as="geometry" />
        </mxCell>
        <mxCell id="PB1MrMbRce0Rwy10HPza-5" value="Создать новый массив из 3 и меньше элементов" style="rounded=0;whiteSpace=wrap;html=1;" vertex="1" parent="1">
          <mxGeometry x="120" y="280" width="120" height="60" as="geometry" />
        </mxCell>
        <mxCell id="PB1MrMbRce0Rwy10HPza-17" value="" style="edgeStyle=orthogonalEdgeStyle;rounded=0;orthogonalLoop=1;jettySize=auto;html=1;" edge="1" parent="1" source="PB1MrMbRce0Rwy10HPza-7" target="PB1MrMbRce0Rwy10HPza-8">
          <mxGeometry relative="1" as="geometry" />
        </mxCell>
        <mxCell id="PB1MrMbRce0Rwy10HPza-20" value="" style="edgeStyle=orthogonalEdgeStyle;rounded=0;orthogonalLoop=1;jettySize=auto;html=1;" edge="1" parent="1" source="PB1MrMbRce0Rwy10HPza-7" target="PB1MrMbRce0Rwy10HPza-19">
          <mxGeometry relative="1" as="geometry" />
        </mxCell>
        <mxCell id="PB1MrMbRce0Rwy10HPza-7" value="I &amp;lt; startArray" style="rhombus;whiteSpace=wrap;html=1;" vertex="1" parent="1">
          <mxGeometry x="120" y="360" width="120" height="110" as="geometry" />
        </mxCell>
        <mxCell id="PB1MrMbRce0Rwy10HPza-10" value="" style="edgeStyle=orthogonalEdgeStyle;rounded=0;orthogonalLoop=1;jettySize=auto;html=1;" edge="1" parent="1" source="PB1MrMbRce0Rwy10HPza-8" target="PB1MrMbRce0Rwy10HPza-9">
          <mxGeometry relative="1" as="geometry" />
        </mxCell>
        <mxCell id="PB1MrMbRce0Rwy10HPza-13" style="edgeStyle=orthogonalEdgeStyle;rounded=0;orthogonalLoop=1;jettySize=auto;html=1;entryX=0.5;entryY=1;entryDx=0;entryDy=0;" edge="1" parent="1" source="PB1MrMbRce0Rwy10HPza-8" target="PB1MrMbRce0Rwy10HPza-12">
          <mxGeometry relative="1" as="geometry" />
        </mxCell>
        <mxCell id="PB1MrMbRce0Rwy10HPza-8" value="if startArray &amp;lt;=3" style="rhombus;whiteSpace=wrap;html=1;" vertex="1" parent="1">
          <mxGeometry x="120" y="510" width="120" height="120" as="geometry" />
        </mxCell>
        <mxCell id="PB1MrMbRce0Rwy10HPza-14" style="edgeStyle=orthogonalEdgeStyle;rounded=0;orthogonalLoop=1;jettySize=auto;html=1;" edge="1" parent="1" source="PB1MrMbRce0Rwy10HPza-9">
          <mxGeometry relative="1" as="geometry">
            <mxPoint x="60" y="570" as="targetPoint" />
          </mxGeometry>
        </mxCell>
        <mxCell id="PB1MrMbRce0Rwy10HPza-9" value="newArray[j] = startArray[i]&lt;br&gt;j++" style="whiteSpace=wrap;html=1;aspect=fixed;" vertex="1" parent="1">
          <mxGeometry x="120" y="680" width="120" height="120" as="geometry" />
        </mxCell>
        <mxCell id="PB1MrMbRce0Rwy10HPza-11" value="да" style="text;html=1;align=center;verticalAlign=middle;resizable=0;points=[];autosize=1;strokeColor=none;fillColor=none;" vertex="1" parent="1">
          <mxGeometry x="170" y="638" width="40" height="30" as="geometry" />
        </mxCell>
        <mxCell id="PB1MrMbRce0Rwy10HPza-16" value="" style="edgeStyle=orthogonalEdgeStyle;rounded=0;orthogonalLoop=1;jettySize=auto;html=1;" edge="1" parent="1" source="PB1MrMbRce0Rwy10HPza-12" target="PB1MrMbRce0Rwy10HPza-7">
          <mxGeometry relative="1" as="geometry" />
        </mxCell>
        <mxCell id="PB1MrMbRce0Rwy10HPza-12" value="i++" style="rounded=0;whiteSpace=wrap;html=1;" vertex="1" parent="1">
          <mxGeometry x="20" y="395" width="80" height="40" as="geometry" />
        </mxCell>
        <mxCell id="PB1MrMbRce0Rwy10HPza-15" value="нет" style="text;html=1;align=center;verticalAlign=middle;resizable=0;points=[];autosize=1;strokeColor=none;fillColor=none;" vertex="1" parent="1">
          <mxGeometry x="70" y="548" width="40" height="30" as="geometry" />
        </mxCell>
        <mxCell id="PB1MrMbRce0Rwy10HPza-22" value="" style="edgeStyle=orthogonalEdgeStyle;rounded=0;orthogonalLoop=1;jettySize=auto;html=1;" edge="1" parent="1" source="PB1MrMbRce0Rwy10HPza-19" target="PB1MrMbRce0Rwy10HPza-21">
          <mxGeometry relative="1" as="geometry" />
        </mxCell>
        <mxCell id="PB1MrMbRce0Rwy10HPza-19" value="Напечатать новый массив меньше 3х символов" style="shape=document;whiteSpace=wrap;html=1;boundedLbl=1;" vertex="1" parent="1">
          <mxGeometry x="280" y="375" width="120" height="80" as="geometry" />
        </mxCell>
        <mxCell id="PB1MrMbRce0Rwy10HPza-21" value="Окончание" style="ellipse;whiteSpace=wrap;html=1;" vertex="1" parent="1">
          <mxGeometry x="285" y="700" width="110" height="80" as="geometry" />
        </mxCell>
      </root>
    </mxGraphModel>
  </diagram>
</mxfile>
